<?xml version="1.0" encoding="UTF-8" standalone="no"?>
<!DOCTYPE svg PUBLIC "-//W3C//DTD SVG 1.1//EN"
 "http://www.w3.org/Graphics/SVG/1.1/DTD/svg11.dtd">
<!-- Generated by graphviz version 2.43.0 (0)
 -->
<!-- Title: %3 Pages: 1 -->
<svg width="278pt" height="188pt"
 viewBox="0.00 0.00 278.00 188.00" xmlns="http://www.w3.org/2000/svg" xmlns:xlink="http://www.w3.org/1999/xlink">
<g id="graph0" class="graph" transform="scale(1 1) rotate(0) translate(4 184)">
<title>%3</title>
<polygon fill="white" stroke="transparent" points="-4,4 -4,-184 274,-184 274,4 -4,4"/>
<!-- a -->
<g id="node1" class="node">
<title>a</title>
<ellipse fill="none" stroke="black" cx="27" cy="-162" rx="27" ry="18"/>
<text text-anchor="middle" x="27" y="-157.8" font-family="Times,serif" font-size="14.00">a</text>
</g>
<!-- mean -->
<g id="node5" class="node">
<title>mean</title>
<ellipse fill="none" stroke="black" cx="135" cy="-90" rx="29.02" ry="18"/>
<text text-anchor="middle" x="135" y="-85.8" font-family="Times,serif" font-size="14.00">mean</text>
</g>
<!-- a&#45;&gt;mean -->
<g id="edge1" class="edge">
<title>a&#45;&gt;mean</title>
<path fill="none" stroke="black" d="M45.81,-148.81C62.79,-137.8 87.99,-121.47 107.28,-108.97"/>
<polygon fill="black" stroke="black" points="109.19,-111.9 115.68,-103.52 105.38,-106.03 109.19,-111.9"/>
</g>
<!-- bA -->
<g id="node2" class="node">
<title>bA</title>
<ellipse fill="none" stroke="black" cx="99" cy="-162" rx="27" ry="18"/>
<text text-anchor="middle" x="99" y="-157.8" font-family="Times,serif" font-size="14.00">bA</text>
</g>
<!-- bA&#45;&gt;mean -->
<g id="edge2" class="edge">
<title>bA&#45;&gt;mean</title>
<path fill="none" stroke="black" d="M107.35,-144.76C111.65,-136.4 116.99,-126.02 121.83,-116.61"/>
<polygon fill="black" stroke="black" points="124.98,-118.13 126.45,-107.63 118.76,-114.93 124.98,-118.13"/>
</g>
<!-- br -->
<g id="node3" class="node">
<title>br</title>
<ellipse fill="none" stroke="black" cx="171" cy="-162" rx="27" ry="18"/>
<text text-anchor="middle" x="171" y="-157.8" font-family="Times,serif" font-size="14.00">br</text>
</g>
<!-- br&#45;&gt;mean -->
<g id="edge3" class="edge">
<title>br&#45;&gt;mean</title>
<path fill="none" stroke="black" d="M162.65,-144.76C158.35,-136.4 153.01,-126.02 148.17,-116.61"/>
<polygon fill="black" stroke="black" points="151.24,-114.93 143.55,-107.63 145.02,-118.13 151.24,-114.93"/>
</g>
<!-- bar -->
<g id="node4" class="node">
<title>bar</title>
<ellipse fill="none" stroke="black" cx="243" cy="-162" rx="27" ry="18"/>
<text text-anchor="middle" x="243" y="-157.8" font-family="Times,serif" font-size="14.00">bar</text>
</g>
<!-- bar&#45;&gt;mean -->
<g id="edge4" class="edge">
<title>bar&#45;&gt;mean</title>
<path fill="none" stroke="black" d="M224.19,-148.81C207.21,-137.8 182.01,-121.47 162.72,-108.97"/>
<polygon fill="black" stroke="black" points="164.62,-106.03 154.32,-103.52 160.81,-111.9 164.62,-106.03"/>
</g>
<!-- log_gdp -->
<g id="node7" class="node">
<title>log_gdp</title>
<ellipse fill="none" stroke="black" cx="174" cy="-18" rx="39.19" ry="18"/>
<text text-anchor="middle" x="174" y="-13.8" font-family="Times,serif" font-size="14.00">log_gdp</text>
</g>
<!-- mean&#45;&gt;log_gdp -->
<g id="edge5" class="edge">
<title>mean&#45;&gt;log_gdp</title>
<path fill="none" stroke="black" d="M144.05,-72.76C148.7,-64.4 154.49,-54.02 159.73,-44.61"/>
<polygon fill="black" stroke="black" points="162.92,-46.07 164.73,-35.63 156.81,-42.67 162.92,-46.07"/>
</g>
<!-- sigma -->
<g id="node6" class="node">
<title>sigma</title>
<ellipse fill="none" stroke="black" cx="213" cy="-90" rx="31.46" ry="18"/>
<text text-anchor="middle" x="213" y="-85.8" font-family="Times,serif" font-size="14.00">sigma</text>
</g>
<!-- sigma&#45;&gt;log_gdp -->
<g id="edge6" class="edge">
<title>sigma&#45;&gt;log_gdp</title>
<path fill="none" stroke="black" d="M203.95,-72.76C199.3,-64.4 193.51,-54.02 188.27,-44.61"/>
<polygon fill="black" stroke="black" points="191.19,-42.67 183.27,-35.63 185.08,-46.07 191.19,-42.67"/>
</g>
</g>
</svg>
