<?xml version="1.0" encoding="UTF-8" standalone="no"?>
<!DOCTYPE svg PUBLIC "-//W3C//DTD SVG 1.1//EN"
 "http://www.w3.org/Graphics/SVG/1.1/DTD/svg11.dtd">
<!-- Generated by graphviz version 2.43.0 (0)
 -->
<!-- Title: %3 Pages: 1 -->
<svg width="714pt" height="188pt"
 viewBox="0.00 0.00 713.74 188.00" xmlns="http://www.w3.org/2000/svg" xmlns:xlink="http://www.w3.org/1999/xlink">
<g id="graph0" class="graph" transform="scale(1 1) rotate(0) translate(4 184)">
<title>%3</title>
<polygon fill="white" stroke="transparent" points="-4,4 -4,-184 709.74,-184 709.74,4 -4,4"/>
<!-- U -->
<g id="node1" class="node">
<title>U</title>
<ellipse fill="none" stroke="black" cx="100.74" cy="-162" rx="100.97" ry="18"/>
<text text-anchor="middle" x="100.74" y="-157.8" font-family="Times,serif" font-size="14.00">Unobserved Confounders</text>
</g>
<!-- y -->
<g id="node2" class="node">
<title>y</title>
<ellipse fill="none" stroke="black" cx="381.74" cy="-18" rx="27" ry="18"/>
<text text-anchor="middle" x="381.74" y="-13.8" font-family="Times,serif" font-size="14.00">y</text>
</g>
<!-- U&#45;&gt;y -->
<g id="edge1" class="edge">
<title>U&#45;&gt;y</title>
<path fill="none" stroke="black" d="M132.7,-144.85C187.52,-117.15 298.71,-60.95 351.98,-34.04"/>
<polygon fill="black" stroke="black" points="353.58,-37.15 360.92,-29.52 350.42,-30.9 353.58,-37.15"/>
</g>
<!-- v0 -->
<g id="node3" class="node">
<title>v0</title>
<ellipse fill="none" stroke="black" cx="436.74" cy="-90" rx="27" ry="18"/>
<text text-anchor="middle" x="436.74" y="-85.8" font-family="Times,serif" font-size="14.00">v0</text>
</g>
<!-- U&#45;&gt;v0 -->
<g id="edge3" class="edge">
<title>U&#45;&gt;v0</title>
<path fill="none" stroke="black" d="M163.54,-147.92C233.81,-133.28 345.18,-110.07 401.55,-98.33"/>
<polygon fill="black" stroke="black" points="402.34,-101.74 411.42,-96.27 400.91,-94.89 402.34,-101.74"/>
</g>
<!-- v0&#45;&gt;y -->
<g id="edge2" class="edge">
<title>v0&#45;&gt;y</title>
<path fill="none" stroke="black" d="M424.8,-73.81C417.52,-64.55 408.07,-52.52 399.88,-42.09"/>
<polygon fill="black" stroke="black" points="402.58,-39.86 393.65,-34.16 397.07,-44.18 402.58,-39.86"/>
</g>
<!-- W0 -->
<g id="node4" class="node">
<title>W0</title>
<ellipse fill="none" stroke="black" cx="246.74" cy="-162" rx="27" ry="18"/>
<text text-anchor="middle" x="246.74" y="-157.8" font-family="Times,serif" font-size="14.00">W0</text>
</g>
<!-- W0&#45;&gt;y -->
<g id="edge11" class="edge">
<title>W0&#45;&gt;y</title>
<path fill="none" stroke="black" d="M260.67,-146.34C284.42,-121.36 332.85,-70.42 360.72,-41.1"/>
<polygon fill="black" stroke="black" points="363.32,-43.45 367.67,-33.79 358.24,-38.63 363.32,-43.45"/>
</g>
<!-- W0&#45;&gt;v0 -->
<g id="edge4" class="edge">
<title>W0&#45;&gt;v0</title>
<path fill="none" stroke="black" d="M267.88,-150.54C272.72,-148.28 277.87,-145.98 282.74,-144 323.5,-127.42 371.63,-111.41 403.09,-101.4"/>
<polygon fill="black" stroke="black" points="404.21,-104.72 412.69,-98.37 402.1,-98.04 404.21,-104.72"/>
</g>
<!-- W1 -->
<g id="node5" class="node">
<title>W1</title>
<ellipse fill="none" stroke="black" cx="318.74" cy="-162" rx="27" ry="18"/>
<text text-anchor="middle" x="318.74" y="-157.8" font-family="Times,serif" font-size="14.00">W1</text>
</g>
<!-- W1&#45;&gt;y -->
<g id="edge12" class="edge">
<title>W1&#45;&gt;y</title>
<path fill="none" stroke="black" d="M326.09,-144.43C336.94,-119.96 357.37,-73.91 370.23,-44.94"/>
<polygon fill="black" stroke="black" points="373.58,-46.02 374.43,-35.46 367.18,-43.18 373.58,-46.02"/>
</g>
<!-- W1&#45;&gt;v0 -->
<g id="edge5" class="edge">
<title>W1&#45;&gt;v0</title>
<path fill="none" stroke="black" d="M338.22,-149.44C357.35,-138.09 386.74,-120.66 408.44,-107.78"/>
<polygon fill="black" stroke="black" points="410.41,-110.69 417.22,-102.58 406.83,-104.67 410.41,-110.69"/>
</g>
<!-- W2 -->
<g id="node6" class="node">
<title>W2</title>
<ellipse fill="none" stroke="black" cx="390.74" cy="-162" rx="27" ry="18"/>
<text text-anchor="middle" x="390.74" y="-157.8" font-family="Times,serif" font-size="14.00">W2</text>
</g>
<!-- W2&#45;&gt;y -->
<g id="edge13" class="edge">
<title>W2&#45;&gt;y</title>
<path fill="none" stroke="black" d="M389.65,-143.87C388.12,-119.67 385.3,-75.21 383.47,-46.39"/>
<polygon fill="black" stroke="black" points="386.95,-45.95 382.82,-36.19 379.96,-46.39 386.95,-45.95"/>
</g>
<!-- W2&#45;&gt;v0 -->
<g id="edge6" class="edge">
<title>W2&#45;&gt;v0</title>
<path fill="none" stroke="black" d="M401.17,-145.12C406.94,-136.34 414.22,-125.26 420.69,-115.42"/>
<polygon fill="black" stroke="black" points="423.77,-117.1 426.34,-106.82 417.92,-113.26 423.77,-117.1"/>
</g>
<!-- W3 -->
<g id="node7" class="node">
<title>W3</title>
<ellipse fill="none" stroke="black" cx="606.74" cy="-162" rx="27" ry="18"/>
<text text-anchor="middle" x="606.74" y="-157.8" font-family="Times,serif" font-size="14.00">W3</text>
</g>
<!-- W3&#45;&gt;y -->
<g id="edge14" class="edge">
<title>W3&#45;&gt;y</title>
<path fill="none" stroke="black" d="M588.75,-148.56C563.24,-131.04 514.94,-98.27 472.74,-72 452.25,-59.25 428.7,-45.55 410.69,-35.28"/>
<polygon fill="black" stroke="black" points="412.24,-32.14 401.82,-30.25 408.78,-38.23 412.24,-32.14"/>
</g>
<!-- W3&#45;&gt;v0 -->
<g id="edge7" class="edge">
<title>W3&#45;&gt;v0</title>
<path fill="none" stroke="black" d="M585.52,-150.7C580.69,-148.44 575.55,-146.09 570.74,-144 536.39,-129.12 496.42,-113.53 469.13,-103.14"/>
<polygon fill="black" stroke="black" points="470.27,-99.83 459.68,-99.56 467.79,-106.38 470.27,-99.83"/>
</g>
<!-- W4 -->
<g id="node8" class="node">
<title>W4</title>
<ellipse fill="none" stroke="black" cx="678.74" cy="-162" rx="27" ry="18"/>
<text text-anchor="middle" x="678.74" y="-157.8" font-family="Times,serif" font-size="14.00">W4</text>
</g>
<!-- W4&#45;&gt;y -->
<g id="edge15" class="edge">
<title>W4&#45;&gt;y</title>
<path fill="none" stroke="black" d="M659.04,-149.44C628.48,-131.7 567.52,-97.21 513.74,-72 480.62,-56.48 441.65,-41.18 414.68,-31.04"/>
<polygon fill="black" stroke="black" points="415.56,-27.63 404.96,-27.42 413.11,-34.19 415.56,-27.63"/>
</g>
<!-- W4&#45;&gt;v0 -->
<g id="edge8" class="edge">
<title>W4&#45;&gt;v0</title>
<path fill="none" stroke="black" d="M657.7,-150.25C652.86,-148.01 647.68,-145.78 642.74,-144 584.3,-122.9 513.7,-106.64 472.16,-97.98"/>
<polygon fill="black" stroke="black" points="472.75,-94.52 462.25,-95.94 471.34,-101.38 472.75,-94.52"/>
</g>
<!-- Z0 -->
<g id="node9" class="node">
<title>Z0</title>
<ellipse fill="none" stroke="black" cx="462.74" cy="-162" rx="27" ry="18"/>
<text text-anchor="middle" x="462.74" y="-157.8" font-family="Times,serif" font-size="14.00">Z0</text>
</g>
<!-- Z0&#45;&gt;v0 -->
<g id="edge9" class="edge">
<title>Z0&#45;&gt;v0</title>
<path fill="none" stroke="black" d="M456.57,-144.41C453.57,-136.34 449.9,-126.43 446.52,-117.35"/>
<polygon fill="black" stroke="black" points="449.8,-116.11 443.03,-107.96 443.23,-118.55 449.8,-116.11"/>
</g>
<!-- Z1 -->
<g id="node10" class="node">
<title>Z1</title>
<ellipse fill="none" stroke="black" cx="534.74" cy="-162" rx="27" ry="18"/>
<text text-anchor="middle" x="534.74" y="-157.8" font-family="Times,serif" font-size="14.00">Z1</text>
</g>
<!-- Z1&#45;&gt;v0 -->
<g id="edge10" class="edge">
<title>Z1&#45;&gt;v0</title>
<path fill="none" stroke="black" d="M516.76,-148.16C501.7,-137.41 480,-121.91 463,-109.76"/>
<polygon fill="black" stroke="black" points="464.77,-106.72 454.6,-103.76 460.7,-112.42 464.77,-106.72"/>
</g>
</g>
</svg>
