<?xml version="1.0" encoding="UTF-8" standalone="no"?>
<!DOCTYPE svg PUBLIC "-//W3C//DTD SVG 1.1//EN"
 "http://www.w3.org/Graphics/SVG/1.1/DTD/svg11.dtd">
<!-- Generated by graphviz version 2.43.0 (0)
 -->
<!-- Title: %3 Pages: 1 -->
<svg width="371pt" height="98pt"
 viewBox="0.00 0.00 370.51 98.00" xmlns="http://www.w3.org/2000/svg" xmlns:xlink="http://www.w3.org/1999/xlink">
<g id="graph0" class="graph" transform="scale(1 1) rotate(0) translate(4 94)">
<title>%3</title>
<polygon fill="white" stroke="transparent" points="-4,4 -4,-94 366.51,-94 366.51,4 -4,4"/>
<!-- loc -->
<g id="node1" class="node">
<title>loc</title>
<ellipse fill="none" stroke="black" cx="154.72" cy="-72" rx="27" ry="18"/>
<text text-anchor="middle" x="154.72" y="-67.8" font-family="Times,serif" font-size="14.00">loc</text>
</g>
<!-- z1 -->
<g id="node3" class="node">
<title>z1</title>
<ellipse fill="none" stroke="black" cx="245.51" cy="-72" rx="27" ry="18"/>
<text text-anchor="middle" x="245.51" y="-67.8" font-family="Times,serif" font-size="14.00">z1</text>
</g>
<!-- loc&#45;&gt;z1 -->
<g id="edge1" class="edge">
<title>loc&#45;&gt;z1</title>
<path fill="none" stroke="black" d="M181.88,-72C190.12,-72 199.37,-72 208.18,-72"/>
<polygon fill="black" stroke="black" points="208.23,-75.5 218.23,-72 208.23,-68.5 208.23,-75.5"/>
</g>
<!-- z2 -->
<g id="node4" class="node">
<title>z2</title>
<ellipse fill="none" stroke="black" cx="245.51" cy="-18" rx="27" ry="18"/>
<text text-anchor="middle" x="245.51" y="-13.8" font-family="Times,serif" font-size="14.00">z2</text>
</g>
<!-- loc&#45;&gt;z2 -->
<g id="edge2" class="edge">
<title>loc&#45;&gt;z2</title>
<path fill="none" stroke="black" d="M175.43,-60.02C187.38,-52.74 202.84,-43.34 216.1,-35.28"/>
<polygon fill="black" stroke="black" points="218.13,-38.14 224.86,-29.95 214.49,-32.16 218.13,-38.14"/>
</g>
<!-- scale -->
<g id="node2" class="node">
<title>scale</title>
<ellipse fill="none" stroke="black" cx="154.72" cy="-18" rx="27.56" ry="18"/>
<text text-anchor="middle" x="154.72" y="-13.8" font-family="Times,serif" font-size="14.00">scale</text>
</g>
<!-- scale&#45;&gt;z1 -->
<g id="edge3" class="edge">
<title>scale&#45;&gt;z1</title>
<path fill="none" stroke="black" d="M175.87,-30.25C187.84,-37.53 203.21,-46.88 216.36,-54.88"/>
<polygon fill="black" stroke="black" points="214.69,-57.96 225.05,-60.17 218.32,-51.98 214.69,-57.96"/>
</g>
<!-- scale&#45;&gt;z2 -->
<g id="edge4" class="edge">
<title>scale&#45;&gt;z2</title>
<path fill="none" stroke="black" d="M182.84,-18C190.89,-18 199.84,-18 208.36,-18"/>
<polygon fill="black" stroke="black" points="208.46,-21.5 218.46,-18 208.46,-14.5 208.46,-21.5"/>
</g>
<!-- y -->
<g id="node5" class="node">
<title>y</title>
<ellipse fill="none" stroke="black" cx="335.51" cy="-45" rx="27" ry="18"/>
<text text-anchor="middle" x="335.51" y="-40.8" font-family="Times,serif" font-size="14.00">y</text>
</g>
<!-- z1&#45;&gt;y -->
<g id="edge5" class="edge">
<title>z1&#45;&gt;y</title>
<path fill="none" stroke="black" d="M270.55,-64.62C279.94,-61.74 290.87,-58.39 301.01,-55.28"/>
<polygon fill="black" stroke="black" points="302.26,-58.55 310.79,-52.28 300.21,-51.86 302.26,-58.55"/>
</g>
<!-- z2&#45;&gt;y -->
<g id="edge6" class="edge">
<title>z2&#45;&gt;y</title>
<path fill="none" stroke="black" d="M270.55,-25.38C279.94,-28.26 290.87,-31.61 301.01,-34.72"/>
<polygon fill="black" stroke="black" points="300.21,-38.14 310.79,-37.72 302.26,-31.45 300.21,-38.14"/>
</g>
<!-- mu_latent -->
<g id="node6" class="node">
<title>mu_latent</title>
<ellipse fill="none" stroke="black" cx="45.47" cy="-72" rx="45.44" ry="18"/>
<text text-anchor="middle" x="45.47" y="-67.8" font-family="Times,serif" font-size="14.00">mu_latent</text>
</g>
<!-- mu_latent&#45;&gt;loc -->
<g id="edge7" class="edge">
<title>mu_latent&#45;&gt;loc</title>
<path fill="none" stroke="black" d="M91.03,-72C99.77,-72 108.84,-72 117.28,-72"/>
<polygon fill="black" stroke="black" points="117.55,-75.5 127.55,-72 117.55,-68.5 117.55,-75.5"/>
</g>
</g>
</svg>
